HIERARCHY
ROOT Hips
{
	OFFSET 0.00 0.00 0.00
	CHANNELS 6 Xposition Yposition Zposition Xrotation Yrotation Zrotation
	JOINT LeftUpLeg
	{
		OFFSET 2.94355 0.00000 0.00000
		CHANNELS 3 Xrotation Yrotation Zrotation
		JOINT LeftLeg
		{
			OFFSET 0.00000 -16.73768 0.00000
			CHANNELS 3 Xrotation Yrotation Zrotation
			JOINT LeftFoot
			{
				OFFSET 0.00000 -15.48883 0.00000
				CHANNELS 3 Xrotation Yrotation Zrotation
				JOINT LeftToeBase
				{
					OFFSET 0.00000 -1.60986 6.00809
					CHANNELS 3 Xrotation Yrotation Zrotation
					End Site
					{
						OFFSET 0.00000 0.00000 2.95275
					}
				}
			}
		}
	}
	JOINT RightUpLeg
	{
		OFFSET -2.94355 0.00000 0.00000
		CHANNELS 3 Xrotation Yrotation Zrotation
		JOINT RightLeg
		{
			OFFSET 0.00000 -16.73768 0.00000
			CHANNELS 3 Xrotation Yrotation Zrotation
			JOINT RightFoot
			{
				OFFSET 0.00000 -15.48883 0.00000
				CHANNELS 3 Xrotation Yrotation Zrotation
				JOINT RightToeBase
				{
					OFFSET 0.00000 -1.60986 6.00809
					CHANNELS 3 Xrotation Yrotation Zrotation
					End Site
					{
						OFFSET 0.00000 0.00000 2.95275
					}
				}
			}
		}
	}
	JOINT Spine
	{
		OFFSET 0.00000 0.03937 0.00000
		CHANNELS 3 Xrotation Yrotation Zrotation
		JOINT Spine1
		{
			OFFSET 0.00000 11.10029 0.00000
			CHANNELS 3 Xrotation Yrotation Zrotation
			JOINT Neck
			{
				OFFSET 0.00000 8.89215 0.00000
				CHANNELS 3 Xrotation Yrotation Zrotation
				JOINT Head
				{
					OFFSET 0.00000 5.25932 0.00000
					CHANNELS 3 Xrotation Yrotation Zrotation
					End Site
					{
						OFFSET 0.00000 4.52755 0.00000
					}
				}
			}
			JOINT LeftShoulder
			{
				OFFSET 0.00000 8.89215 0.00000
				CHANNELS 3 Xrotation Yrotation Zrotation
				JOINT LeftArm
				{
					OFFSET 6.13318 -0.00002 0.00000
					CHANNELS 3 Xrotation Yrotation Zrotation
					JOINT LeftForeArm
					{
						OFFSET 10.77766 -0.00004 0.00000
						CHANNELS 3 Xrotation Yrotation Zrotation
						JOINT LeftHand
						{
							OFFSET 9.97045 -0.00004 0.00000
							CHANNELS 3 Xrotation Yrotation Zrotation
							JOINT LeftHandThumb
							{
								OFFSET 0.00000 0.00000 0.00000
								CHANNELS 3 Xrotation Yrotation Zrotation
								End Site
								{
									OFFSET 0.00000 0.00000 3.93700
								}
							}
							JOINT L_Wrist_End
							{
								OFFSET 3.93700 -0.00001 0.00000
								CHANNELS 3 Xrotation Yrotation Zrotation
							}
						}
					}
				}
			}
			JOINT RightShoulder
			{
				OFFSET 0.00000 8.89215 0.00000
				CHANNELS 3 Xrotation Yrotation Zrotation
				JOINT RightArm
				{
					OFFSET -6.13318 -0.00002 0.00000
					CHANNELS 3 Xrotation Yrotation Zrotation
					JOINT RightForeArm
					{
						OFFSET -10.77766 -0.00004 0.00000
						CHANNELS 3 Xrotation Yrotation Zrotation
						JOINT RightHand
						{
							OFFSET -9.97045 -0.00004 0.00000
							CHANNELS 3 Xrotation Yrotation Zrotation
							JOINT RightHandThumb
							{
								OFFSET 0.00000 0.00000 0.00000
								CHANNELS 3 Xrotation Yrotation Zrotation
								End Site
								{
									OFFSET 0.00000 0.00000 3.93700
								}
							}
							JOINT R_Wrist_End
							{
								OFFSET -3.93700 -0.00001 0.00000
								CHANNELS 3 Xrotation Yrotation Zrotation
							}
						}
					}
				}
			}
		}
	}
}
MOTION
Frames: 16
Frame Time: 0.008333
 -72.5490 34.0577 -3.2133 89.8639 83.3198 -82.0426 -5.0038 -2.7326 -4.7087 11.5353 -0.0000 0.0000 -8.8111 14.2884 -42.1428 -10.6112 0.0000 0.0000 -2.8133 -13.4882 -16.9247 -1.3475 -0.0000 0.0000 -8.8081 7.9049 13.7436 -2.1871 -0.0000 -0.0000 -8.6644 2.0560 -10.9933 -1.2760 2.1768 1.1682 19.3683 19.6572 -2.8966 -1.4484 -20.6829 1.3514 -8.3514 1.3921 -7.5853 22.1358 -1.4641 -73.0510 -0.0001 -25.3131 -0.0000 -5.8170 17.6034 -6.9983 -0.0000 0.0000 0.0000 -0.0000 0.0000 0.0000 -1.4684 -10.9671 2.1923 14.1564 9.3316 75.4031 -0.0002 38.0569 0.0001 7.4274 6.0247 -4.9427 -0.0000 0.0000 0.0000 -0.0000 0.0000 0.0000
 -72.5228 34.0539 -3.3045 90.3774 83.2373 -82.4774 -5.0296 -2.9170 -4.9588 11.4467 0.0000 0.0000 -8.8709 14.4147 -42.0386 -10.6261 -0.0000 0.0000 -3.2205 -13.6558 -17.2338 -0.8186 -0.0000 0.0000 -9.0790 8.0387 13.8066 -2.2014 -0.0000 -0.0000 -8.6637 2.0589 -11.0561 -1.2993 2.1932 1.1632 19.3816 19.6493 -2.9023 -1.3753 -20.7260 1.3003 -8.3191 1.2908 -7.5990 22.5117 -3.4841 -73.6391 -0.0001 -24.8961 -0.0000 -5.9227 17.3075 -6.3974 -0.0000 -0.0000 -0.0000 -0.0000 -0.0000 -0.0000 -1.4617 -10.8857 2.2111 14.6283 11.0321 75.5405 -0.0002 38.4580 0.0001 8.0293 6.1121 -4.1660 0.0000 0.0000 -0.0000 0.0000 0.0000 -0.0000
 -72.4969 34.0487 -3.3976 91.0251 83.1628 -83.0588 -5.0489 -3.1402 -5.2029 11.3509 -0.0000 0.0000 -8.9475 14.5683 -41.9458 -10.6125 0.0000 0.0000 -3.6717 -13.8610 -17.5486 -0.1998 -0.0000 -0.0000 -9.4063 8.2126 13.8544 -2.2339 0.0000 -0.0000 -8.6436 2.0336 -11.1085 -1.3265 2.1852 1.1534 19.2766 19.6715 -2.8987 -1.1393 -20.7662 1.3038 -8.3597 1.2483 -7.5828 22.7584 -4.6873 -74.0899 -0.0001 -24.9884 -0.0000 -6.0021 18.3310 -7.2938 0.0000 -0.0000 -0.0000 0.0000 -0.0000 -0.0000 -1.4155 -10.7788 2.1980 15.0807 12.8022 75.5957 -0.0002 38.9591 0.0001 8.6820 6.2458 -3.4763 0.0000 0.0000 0.0000 0.0000 0.0000 0.0000
 -72.4635 34.0461 -3.4812 91.8835 83.1576 -83.9431 -4.9788 -3.3894 -5.3343 11.2447 0.0000 -0.0000 -9.0269 14.6807 -41.8061 -10.6588 -0.0000 0.0000 -4.0817 -14.1990 -17.7619 0.4946 0.0000 0.0000 -9.7526 8.5181 13.8443 -2.3241 0.0000 0.0000 -8.6035 2.0184 -11.1043 -1.2941 2.1809 1.1860 19.2165 19.6527 -2.8947 -0.9798 -20.8267 1.2510 -8.4447 1.0622 -7.6148 22.8795 -5.0759 -74.3851 -0.0001 -24.7985 -0.0000 -7.4898 18.0007 -6.3059 -0.0000 0.0000 -0.0000 -0.0000 0.0000 -0.0000 -1.4883 -10.5815 2.2210 15.6846 13.9605 75.6302 -0.0002 39.8082 0.0001 9.3174 6.1639 -2.4313 0.0000 -0.0000 -0.0000 0.0000 -0.0000 -0.0000
 -72.4388 34.0409 -3.5731 92.5165 83.0763 -84.4506 -4.9166 -3.8735 -5.6420 10.9043 0.0000 0.0000 -8.9924 15.0477 -41.7904 -10.6311 -0.0000 -0.0000 -4.5842 -14.1419 -18.1497 1.3259 0.0000 -0.0000 -10.1797 8.4689 13.8578 -2.2888 -0.0000 0.0000 -8.5793 1.9419 -11.2118 -1.3086 2.1300 1.1506 19.1922 19.7048 -2.9073 -0.9958 -20.8080 1.1949 -8.4304 1.1090 -7.5055 22.6401 -4.4897 -74.6095 -0.0001 -25.0679 -0.0000 -6.8171 17.7426 -5.2584 -0.0000 -0.0000 -0.0000 -0.0000 -0.0000 -0.0000 -1.2538 -10.5915 2.1758 15.8257 15.8410 75.5610 -0.0002 40.3365 0.0001 9.3797 6.4941 -2.2684 0.0000 0.0000 0.0000 0.0000 0.0000 0.0000
 -72.3995 34.0388 -3.6484 93.2750 83.0874 -85.2365 -4.8394 -3.8373 -5.7400 10.8902 -0.0000 -0.0000 -9.0753 14.9144 -41.6377 -10.6321 0.0000 -0.0000 -4.9726 -14.2668 -18.3489 2.1621 0.0000 -0.0000 -10.5367 8.5827 13.6136 -2.3343 -0.0000 -0.0000 -8.5307 1.9424 -11.2329 -1.2445 2.1472 1.1691 19.1156 19.6253 -2.8378 -0.9325 -20.8510 1.1192 -8.3788 0.9853 -7.4665 22.3901 -4.2655 -74.5641 -0.0001 -25.1726 -0.0000 -6.6872 16.7650 -4.5240 0.0000 -0.0000 0.0000 0.0000 -0.0000 0.0000 -1.4828 -10.5049 2.1614 16.5243 16.7688 75.4666 -0.0002 41.2356 0.0001 8.3465 6.4596 -2.4752 -0.0000 0.0000 -0.0000 -0.0000 0.0000 -0.0000
 -72.3683 34.0352 -3.7348 93.1607 83.0413 -84.9838 -4.8052 -3.7354 -6.0324 10.8262 -0.0000 0.0000 -9.1514 14.8614 -41.4245 -10.5741 0.0000 -0.0000 -5.4870 -13.9879 -18.7510 3.1945 -0.0000 0.0000 -11.0441 8.4577 13.5791 -2.3411 -0.0000 0.0000 -8.4870 1.9314 -11.3398 -1.2529 2.1680 1.1220 19.1960 19.6990 -2.9297 -1.0507 -20.9030 1.1454 -8.3919 0.9076 -7.5257 22.5010 -4.2991 -74.1784 -0.0001 -25.5968 -0.0000 -6.6927 16.1950 -3.8954 -0.0000 -0.0000 -0.0000 -0.0000 -0.0000 -0.0000 -1.2102 -10.5341 2.1262 16.5224 17.8660 75.3739 -0.0002 41.8091 0.0001 7.2902 6.4552 -3.1875 0.0000 0.0000 -0.0000 0.0000 0.0000 -0.0000
 -72.3286 34.0316 -3.8072 93.9802 83.0641 -85.8373 -4.6874 -4.0989 -6.1416 10.6762 0.0000 -0.0000 -9.1815 15.0749 -41.3094 -10.6521 -0.0000 -0.0000 -5.9352 -13.9086 -18.9532 4.3239 0.0000 -0.0000 -11.5298 8.4019 13.2509 -2.4305 0.0000 0.0000 -8.4377 1.9028 -11.3678 -1.1591 2.1577 1.1320 19.1471 19.6044 -2.8236 -1.1218 -20.8860 1.0027 -8.5966 0.7766 -7.4299 22.6541 -4.6434 -73.8449 -0.0001 -25.6312 -0.0000 -6.5700 15.6009 -3.1638 -0.0000 0.0000 -0.0000 -0.0000 0.0000 -0.0000 -1.3022 -10.4869 2.0613 16.8391 18.1779 75.3450 -0.0002 42.5949 0.0001 7.0495 6.4278 -3.4157 0.0000 0.0000 0.0000 0.0000 0.0000 0.0000
 -72.3025 34.0268 -3.9039 93.6800 83.0136 -85.3541 -4.6509 -4.2539 -6.5161 10.5174 -0.0000 0.0000 -9.2368 15.2971 -41.0826 -10.5750 -0.0000 0.0000 -6.5553 -13.3800 -19.4258 5.6598 0.0000 0.0000 -12.1453 8.1149 13.1315 -2.4279 0.0000 0.0000 -8.3585 1.9211 -11.4449 -1.1953 2.2145 1.0332 19.3250 19.7214 -3.0427 -1.3474 -21.0487 1.1309 -8.4846 0.7975 -7.5510 22.7919 -5.5964 -72.9952 -0.0001 -25.8981 -0.0000 -6.8023 15.5139 -3.1126 0.0000 0.0000 -0.0000 0.0000 0.0000 -0.0000 -1.3144 -10.4691 1.9209 16.9687 18.2810 75.4072 -0.0002 43.2737 0.0001 7.2748 6.4732 -3.8969 -0.0000 0.0000 -0.0000 -0.0000 0.0000 -0.0000
 -72.2776 34.0185 -4.0001 93.7477 82.9474 -85.2198 -4.6456 -4.4305 -6.9007 10.3662 0.0000 -0.0000 -9.2671 15.4755 -40.8838 -10.5582 -0.0000 -0.0000 -7.3232 -12.9737 -19.9409 7.1919 0.0000 -0.0000 -12.8263 7.9571 12.9630 -2.4820 0.0000 -0.0000 -8.3007 1.8978 -11.5617 -1.2205 2.2313 0.9113 19.3737 19.6789 -2.9813 -1.5414 -21.0004 0.9344 -8.5867 0.8106 -7.5151 23.0189 -6.2519 -72.3507 -0.0001 -26.0689 -0.0000 -6.7316 15.5276 -3.3625 -0.0000 0.0000 -0.0000 -0.0000 0.0000 -0.0000 -1.3100 -10.3832 1.8070 17.0385 18.1765 75.4371 -0.0002 43.9293 0.0001 7.6847 6.5988 -4.2926 -0.0000 0.0000 0.0000 -0.0000 0.0000 0.0000
 -72.2355 34.0101 -4.0700 94.4495 82.9692 -85.9386 -4.4590 -4.5397 -6.9939 10.1397 0.0000 -0.0000 -9.3095 15.4570 -40.8388 -10.5482 0.0000 -0.0000 -7.9096 -12.7081 -20.1578 8.7093 0.0000 0.0000 -13.4202 7.7954 12.2661 -2.5788 -0.0000 0.0000 -8.2528 1.8469 -11.5985 -1.1413 2.2010 0.8864 19.3906 19.5856 -2.8624 -1.7040 -20.9222 0.7757 -8.8717 0.6892 -7.4525 23.4251 -6.7323 -71.7985 -0.0001 -26.2202 -0.0000 -6.6838 15.2521 -3.4762 -0.0000 0.0000 -0.0000 -0.0000 0.0000 -0.0000 -1.2470 -10.3366 1.7439 17.0389 18.1090 75.3590 -0.0002 44.5272 0.0001 8.3579 6.7524 -4.6843 -0.0000 0.0000 -0.0000 -0.0000 0.0000 -0.0000
 -72.2112 34.0008 -4.1618 93.3206 82.9267 -84.6517 -4.3304 -4.3264 -7.2852 9.9003 0.0000 -0.0000 -9.3007 15.3273 -40.7802 -10.6554 0.0000 0.0000 -8.5600 -11.6853 -20.5522 10.4327 0.0000 0.0000 -14.0231 7.1488 11.8632 -2.8280 0.0000 0.0000 -8.1631 1.8603 -11.6499 -1.1821 2.2535 0.7657 19.5133 19.6458 -2.9361 -1.9422 -20.9147 0.6920 -8.7625 0.6489 -7.6454 23.5923 -7.2067 -70.8343 -0.0001 -26.6989 -0.0000 -6.2523 15.7200 -4.4414 0.0000 0.0000 -0.0000 0.0000 0.0000 -0.0000 -1.3441 -10.2435 1.6283 17.0927 17.7399 75.3131 -0.0002 45.0752 0.0001 8.6528 7.0960 -4.2721 0.0000 -0.0000 0.0000 0.0000 -0.0000 0.0000
 -72.1840 33.9891 -4.2484 92.4808 82.8416 -83.5135 -4.2144 -4.1203 -7.7145 9.5875 0.0000 -0.0000 -9.2405 15.2418 -40.5461 -10.7234 -0.0000 -0.0000 -9.4255 -10.8850 -21.0804 12.3189 0.0000 -0.0000 -14.7123 6.7068 11.1811 -2.8773 0.0000 -0.0000 -8.1096 1.8848 -11.8516 -1.2559 2.3314 0.5763 19.5818 19.6193 -2.8650 -2.0530 -20.8177 0.6522 -8.8574 0.5581 -7.6368 23.8306 -7.5980 -70.0228 -0.0001 -26.9386 -0.0000 -5.6385 16.0959 -5.7819 0.0000 -0.0000 0.0000 0.0000 -0.0000 0.0000 -1.4468 -10.1524 1.5596 17.2546 17.6008 75.1551 -0.0002 45.5171 0.0001 8.3051 7.4986 -4.5456 -0.0000 0.0000 -0.0000 -0.0000 0.0000 -0.0000
 -72.1361 33.9760 -4.3103 93.1760 82.8894 -84.2423 -3.9140 -3.8305 -7.7271 9.3160 0.0000 0.0000 -9.2693 14.7599 -40.7497 -10.7235 -0.0000 -0.0000 -9.9771 -10.3531 -21.2187 14.0543 -0.0000 0.0000 -15.2075 6.3670 10.5638 -2.9148 0.0000 0.0000 -8.0644 1.7823 -11.8866 -1.1358 2.2483 0.5700 19.5374 19.5740 -2.7519 -2.1563 -20.6881 0.4440 -9.0874 0.3685 -7.5153 24.0682 -7.8352 -69.4639 -0.0001 -27.0674 -0.0000 -4.8799 16.5505 -6.6796 0.0000 0.0000 -0.0000 0.0000 0.0000 -0.0000 -1.5174 -10.1282 1.4772 17.2021 17.4721 74.9446 -0.0002 45.8401 0.0001 7.7215 7.6846 -4.4225 -0.0000 0.0000 0.0000 -0.0000 0.0000 0.0000
 -72.1010 33.9676 -4.3864 91.5965 82.9210 -82.5613 -3.6234 -3.2202 -7.9131 9.0899 -0.0000 0.0000 -9.2924 14.3068 -40.7139 -10.6422 0.0000 -0.0000 -10.6028 -9.3345 -21.4488 15.9438 -0.0000 0.0000 -15.6667 5.8475 9.7441 -2.9295 -0.0000 -0.0000 -7.9658 1.7827 -11.9290 -1.0863 2.2887 0.4930 19.5630 19.6675 -2.8180 -2.2349 -20.6529 0.3809 -9.0617 0.2746 -7.7116 24.2978 -8.3036 -68.3952 -0.0001 -27.3246 -0.0000 -4.4359 16.8027 -7.7993 -0.0000 0.0000 0.0000 -0.0000 0.0000 0.0000 -1.6172 -9.9976 1.4557 17.2582 17.3221 74.6253 -0.0002 46.2410 0.0001 7.5647 7.8905 -4.2442 0.0000 0.0000 -0.0000 0.0000 0.0000 -0.0000
 -72.0569 33.9580 -4.4543 90.7608 82.9759 -81.6073 -3.3100 -2.7819 -8.1108 8.8451 -0.0000 -0.0000 -9.2834 13.9241 -40.6991 -10.6422 -0.0000 0.0000 -11.3486 -8.6808 -21.7035 17.9481 -0.0000 0.0000 -16.1458 5.4957 9.0413 -2.9310 -0.0000 -0.0000 -7.8722 1.7472 -12.0204 -1.0166 2.2987 0.4031 19.5449 19.7136 -2.8113 -2.2635 -20.5822 0.3393 -9.0970 0.1334 -7.7518 24.5466 -8.8705 -67.4515 -0.0001 -27.3916 -0.0000 -4.1541 17.0513 -8.6955 0.0000 0.0000 0.0000 0.0000 0.0000 0.0000 -1.7514 -9.9128 1.4277 17.3157 17.2099 74.2898 -0.0002 46.5307 0.0001 6.9988 8.0961 -4.1579 0.0000 0.0000 0.0000 0.0000 0.0000 0.0000
